<?xml version="1.0" encoding="UTF-8" standalone="no"?>
<svg
   xmlns:dc="http://purl.org/dc/elements/1.1/"
   xmlns:cc="http://creativecommons.org/ns#"
   xmlns:rdf="http://www.w3.org/1999/02/22-rdf-syntax-ns#"
   xmlns:svg="http://www.w3.org/2000/svg"
   xmlns="http://www.w3.org/2000/svg"
   xmlns:sodipodi="http://sodipodi.sourceforge.net/DTD/sodipodi-0.dtd"
   xmlns:inkscape="http://www.inkscape.org/namespaces/inkscape"
   inkscape:version="1.0 (4035a4fb49, 2020-05-01)"
   sodipodi:docname="avatar-white.svg"
   id="svg10"
   xml:space="preserve"
   enable-background="new 0 0 1000 1000"
   viewBox="0 0 1000 1000"
   y="0px"
   x="0px"
   version="1.1"><defs
   id="defs14" /><sodipodi:namedview
   inkscape:current-layer="svg10"
   inkscape:window-maximized="1"
   inkscape:window-y="0"
   inkscape:window-x="0"
   inkscape:cy="500"
   inkscape:cx="500"
   inkscape:zoom="0.744"
   showgrid="false"
   id="namedview12"
   inkscape:window-height="1021"
   inkscape:window-width="1920"
   inkscape:pageshadow="2"
   inkscape:pageopacity="0"
   guidetolerance="10"
   gridtolerance="10"
   objecttolerance="10"
   borderopacity="1"
   bordercolor="#666666"
   pagecolor="#ffffff" />
<metadata
   id="metadata2"> Svg Vector Icons : http://www.onlinewebfonts.com/icon <rdf:RDF><cc:Work
     rdf:about=""><dc:format>image/svg+xml</dc:format><dc:type
       rdf:resource="http://purl.org/dc/dcmitype/StillImage" /><dc:title></dc:title></cc:Work></rdf:RDF></metadata>
<g
   style="fill:#ececec"
   id="g8"><path
     style="fill:#ececec"
     id="path4"
     d="M500,227.7c-70.9,0-128.6,57.7-128.6,128.6c0,70.9,57.7,128.6,128.6,128.6c70.9,0,128.6-57.7,128.6-128.6C628.6,285.4,570.9,227.7,500,227.7z" /><path
     style="fill:#ececec"
     id="path6"
     d="M500,10C229.4,10,10,229.4,10,500c0,270.6,219.4,490,490,490c270.6,0,490-219.4,490-490C990,229.4,770.6,10,500,10z M727.7,756.6c-13.4,0-24.2-10.8-24.2-24.2c0-111-89.4-197.9-203.5-197.9c-114.1,0-203.5,86.9-203.5,197.9c0,13.4-10.8,24.2-24.2,24.2c-13.4,0-24.2-10.8-24.2-24.2c0-67.1,26.3-129.5,74.1-175.7c23.5-22.7,50.9-40.3,80.8-52.3c-10-6.6-19.5-14.3-28.1-22.9c-33.4-33.4-51.8-77.9-51.8-125.2c0-47.3,18.4-91.7,51.8-125.2c33.4-33.4,77.9-51.8,125.2-51.8c47.3,0,91.7,18.4,125.2,51.8C658.6,264.6,677,309,677,356.3c0,47.3-18.4,91.7-51.8,125.2c-8.7,8.7-18.1,16.3-28.2,22.9c29.9,12,57.4,29.6,80.8,52.3c47.8,46.2,74.1,108.6,74.1,175.7C751.9,745.7,741.1,756.6,727.7,756.6z" /></g>
</svg>
